<svg xmlns="http://www.w3.org/2000/svg" xmlns:xlink="http://www.w3.org/1999/xlink" width="165" height="162" version="1.1" viewBox="0 0 165 162"><title>Group</title><desc>Created with Sketch.</desc><g id="Page-1" fill="none" fill-rule="evenodd" stroke="none" stroke-width="1"><g id="Group" fill="#000" transform="translate(-9.000000, 0.000000)"><rect id="Rectangle-1" width="163" height="13" x="10" y="149" rx="3"/><rect id="Rectangle-1-Copy" width="150" height="13" x="16" y="129" rx="3"/><rect id="Rectangle-3" width="13" height="57" x="31" y="72"/><rect id="Rectangle-3-Copy" width="13" height="57" x="58" y="72"/><rect id="Rectangle-3-Copy-2" width="13" height="57" x="85" y="72"/><rect id="Rectangle-3-Copy-3" width="13" height="57" x="112" y="72"/><rect id="Rectangle-3-Copy-4" width="13" height="57" x="139" y="72"/><path id="Path-1" d="M95.5578615,1.43036709 C93.4428366,-0.339477226 89.9963506,-0.345668933 87.8721368,1.40646025 L13.3188339,62.9007483 C6.50035274,68.5248807 8.13473761,73.0841408 16.9656458,73.0841408 L165.193822,73.0841408 C174.026382,73.0841408 175.6917,68.486042 168.911976,62.8127964 L95.5578615,1.43036709 Z"/></g></g></svg>