<svg xmlns="http://www.w3.org/2000/svg" xmlns:xlink="http://www.w3.org/1999/xlink" width="51" height="65" version="1.1" viewBox="0 0 51 65"><title>Group</title><desc>Created with Sketch.</desc><g id="Page-1" fill="none" fill-rule="evenodd" stroke="none" stroke-width="1"><g id="Group" transform="translate(0.000000, 3.000000)"><path id="Oval-1" stroke="#438DB6" stroke-width="5" d="M41,15.5 C41,6.93958638 34.0604136,0 25.5,0 C16.9395864,0 10,6.93958638 10,15.5"/><rect id="Rectangle-2" width="5" height="8" x="7.5" y="15.3" fill="#438DB6"/><path id="Shape" fill="#A0C6DA" d="M25.5,46.5 C30.4705627,46.5 34.5,42.4705627 34.5,37.5 C34.5,32.5294373 30.4705627,28.5 25.5,28.5 C20.5294373,28.5 16.5,32.5294373 16.5,37.5 C16.5,42.4705627 20.5294373,46.5 25.5,46.5 L25.5,46.5 Z M25.5,41.5 C23.290861,41.5 21.5,39.709139 21.5,37.5 C21.5,35.290861 23.290861,33.5 25.5,33.5 C27.709139,33.5 29.5,35.290861 29.5,37.5 C29.5,39.709139 27.709139,41.5 25.5,41.5 L25.5,41.5 Z"/><path id="Shape" fill="#A0C6DA" d="M23,44.5 L23,50.5 L23,53 L28,53 L28,50.5 L28,44.5 L28,42 L23,42 L23,44.5 L23,44.5 Z"/><path id="Line" stroke="#438DB6" stroke-linecap="square" stroke-width="5" d="M48.5,23.5 L48.5,59.5"/><path id="Line-Copy" stroke="#438DB6" stroke-linecap="square" stroke-width="5" d="M2.5,23.5 L2.5,59.5"/><path id="Line" stroke="#438DB6" stroke-linecap="square" stroke-width="5" d="M2.5,59.5 L48.5,59.5"/><path id="Line-Copy-2" stroke="#438DB6" stroke-linecap="square" stroke-width="5" d="M2.5,23.5 L48.5,23.5"/></g></g></svg>