<svg xmlns="http://www.w3.org/2000/svg" xmlns:xlink="http://www.w3.org/1999/xlink" id="Layer_1" width="226.777" height="226.777" x="0" y="0" enable-background="new 0 0 226.777 226.777" version="1.1" viewBox="0 0 226.777 226.777" xml:space="preserve"><g id="Page-1"><g id="Website-3" transform="translate(-569.000000, -16.000000)"><g id="top-bar-menu"><g id="logo-top-bar" transform="translate(569.000000, 16.000000)"><g id="Logo-sign-shadow"><polygon id="Shape_34_" fill="gray" points="223.335 59.057 222.893 51.602 220.731 57.814 208.549 68.597 194.597 70.784 190.423 66.709 202.605 49.613 215.181 45.837 201.623 46.136 181.924 60.596 163.454 59.256 181.973 72.075 191.11 78.585 163.307 58.807 137.469 45.837 137.469 45.837 122.142 48.919 74.346 89.171 51.357 96.675 41.876 106.466 24.88 106.665 16.529 122.467 4.74 125.894 15.891 127.485 26.255 113.323 42.22 116.702 41.974 131.808 33.968 153.625 29.399 173.802 24.487 181.851 36.964 179.068 35.54 170.819 46.101 148.655 66.585 140.356 74.494 127.089 87.855 117.2 114.332 121.175 141.103 109.299 136.535 128.032 124.648 129.126 121.259 144.581 131.476 137.674 148.275 130.269 161.49 109.396 162.276 99.457 169.398 106.913 189.981 119.932 201.623 114.367 200.935 86.687 197.595 76.003 212.871 72.127"/><g id="Group_1_"><g id="Shape_35_"><polygon fill="gray" points="190.57 66.785 181.58 60.184 202.605 49.461" opacity=".7"/><polygon fill="gray" points="137.125 45.043 163.307 58.645 166.451 80.584"/><polygon fill="gray" points="166.451 80.584 162.276 99.25 137.125 45.043" opacity=".7"/><polygon fill="gray" points="162.276 99.25 122.191 48.122 137.175 45.142" opacity=".5"/><polygon fill="gray" points="162.276 99.25 118.802 82.074 122.191 48.122" opacity=".3"/><polygon fill="gray" points="122.191 48.122 118.802 82.074 74.002 88.428" opacity=".5"/><polygon fill="gray" points="162.276 99.25 114.332 112.404 118.802 82.074" opacity=".5"/><polygon fill="gray" points="114.332 112.404 162.276 99.25 140.662 109.427" opacity=".7"/><polygon fill="gray" points="87.855 116.97 114.332 112.404 114.773 121.538" opacity=".7"/><polygon fill="gray" points="114.773 121.538 114.332 112.404 140.662 109.427"/><polygon fill="gray" points="74.002 88.428 118.802 82.074 114.332 112.404" opacity=".7"/><polygon fill="gray" points="74.002 88.428 114.332 112.404 87.855 116.97" opacity=".5"/><polygon fill="gray" points="74.002 88.428 87.855 116.97 74.494 126.851"/><polygon fill="gray" points="51.258 96.123 56.614 128.637 41.876 106.249" opacity=".3"/><polygon fill="gray" points="24.88 106.448 41.876 106.249 41.974 116.724"/><polygon fill="gray" points="26.255 113.547 24.88 106.448 41.974 116.724" opacity=".7"/><polygon fill="gray" points="26.255 113.547 16.529 122.232 24.88 106.448"/><polygon fill="gray" points="16.529 122.232 15.842 127.496 4.74 125.658"/><polygon fill="gray" points="16.529 122.232 26.255 113.547 15.842 127.496"/><polygon fill="gray" points="41.876 106.249 56.614 128.637 41.974 131.565" opacity=".7"/><polygon fill="gray" points="46.199 148.245 35.54 170.534 33.968 153.357" opacity=".5"/><polygon fill="gray" points="33.968 153.357 35.54 170.534 29.399 173.511"/><polygon fill="gray" points="35.54 170.534 37.16 178.924 24.487 181.553" opacity=".5"/><polygon fill="gray" points="29.399 173.511 35.54 170.534 24.487 181.553"/><polygon fill="gray" points="41.974 131.565 56.614 128.637 33.968 153.357"/><polygon fill="gray" points="56.614 128.637 66.585 140.104 33.968 153.357"/><polygon fill="gray" points="51.258 96.123 74.002 88.428 56.614 128.637" opacity=".5"/><polygon fill="gray" points="56.614 128.637 74.002 88.428 74.494 126.851" opacity=".7"/><polygon fill="gray" points="66.585 140.104 56.614 128.637 74.494 126.851"/><polygon fill="gray" points="140.662 109.427 161.737 109.277 148.275 130.027"/><polygon fill="gray" points="140.662 109.427 162.276 99.25 161.737 109.277" opacity=".3"/><polygon fill="gray" points="136.535 127.794 140.662 109.427 148.275 130.027" opacity=".5"/><polygon fill="gray" points="131.476 137.424 136.535 127.794 148.275 130.027"/><polygon fill="gray" points="121.259 144.323 124.452 128.538 136.535 127.794"/><polygon fill="gray" points="121.259 144.323 136.535 127.794 131.476 137.424"/><polygon fill="gray" points="181.58 60.184 201.623 45.987 202.605 49.461" opacity=".5"/><polygon fill="gray" points="201.623 45.987 218.029 45.142 202.605 49.461"/><polygon fill="gray" points="191.11 78.402 181.973 71.898 212.871 71.948" opacity=".3"/><polygon fill="gray" points="181.973 71.898 208.549 68.423 212.871 71.948" opacity=".5"/><polygon fill="gray" points="208.549 68.423 220.731 57.651 212.871 71.948" opacity=".5"/><polygon fill="gray" points="212.871 71.948 220.731 57.651 223.335 58.893"/><polygon fill="gray" points="220.731 57.651 222.893 51.447 223.335 58.893"/></g><polygon id="Shape_36_" fill="gray" points="166.451 80.584 169.398 106.697 162.276 99.25"/><polygon id="Shape_37_" fill="gray" points="169.398 106.697 166.451 80.584 191.11 78.402" opacity=".7"/><polygon id="Shape_38_" fill="gray" points="191.11 78.402 166.451 80.584 163.307 58.645" opacity=".5"/><polygon id="Shape_39_" fill="gray" points="190.57 66.785 194.549 70.41 181.973 71.898"/><polygon id="Shape_40_" fill="gray" points="163.307 58.645 190.57 66.785 181.973 71.898" opacity=".7"/><polygon id="Shape_41_" fill="gray" points="163.307 58.645 181.58 60.184 190.57 66.785"/><polygon id="Shape_42_" fill="gray" points="189.981 119.701 191.11 78.402 200.935 86.493" opacity=".7"/><polygon id="Shape_43_" fill="gray" points="189.981 119.701 191.11 78.402 169.398 106.697" opacity=".5"/><polygon id="Shape_44_" fill="gray" points="200.935 86.493 197.79 76.168 191.11 78.402"/><polygon id="Shape_45_" fill="gray" points="202.261 113.993 189.981 119.701 200.935 86.493"/></g></g></g></g></g></g></svg>